<?xml version="1.0" encoding="utf-8"?>
<svg version="1.1" xmlns:xlink="http://www.w3.org/1999/xlink" width="12px" height="12px" viewBox="178 105  12 12" xmlns="http://www.w3.org/2000/svg">
  <path d="M 184 105  C 187.36 105  190 107.64  190 111  C 190 114.36  187.36 117  184 117  C 180.64 117  178 114.36  178 111  C 178 107.64  180.64 105  184 105  Z " fill-rule="nonzero" fill="#ffffff" stroke="none" />
  <path d="M 184 105.5  C 187.08 105.5  189.5 107.92  189.5 111  C 189.5 114.08  187.08 116.5  184 116.5  C 180.92 116.5  178.5 114.08  178.5 111  C 178.5 107.92  180.92 105.5  184 105.5  Z " stroke-width="1" stroke="#797979" fill="none" />
  <path d="M 184 114  C 182.32 114  181 112.68  181 111  C 181 109.32  182.32 108  184 108  C 185.68 108  187 109.32  187 111  C 187 112.68  185.68 114  184 114  " fill-rule="nonzero" fill="#797979" stroke="none" />
</svg>