<?xml version="1.0" encoding="utf-8"?>
<svg version="1.1" xmlns:xlink="http://www.w3.org/1999/xlink" width="12px" height="12px" viewBox="340 105  12 12" xmlns="http://www.w3.org/2000/svg">
  <path d="M 346 105  C 349.36 105  352 107.64  352 111  C 352 114.36  349.36 117  346 117  C 342.64 117  340 114.36  340 111  C 340 107.64  342.64 105  346 105  Z " fill-rule="nonzero" fill="#ffffff" stroke="none" />
  <path d="M 346 105.5  C 349.08 105.5  351.5 107.92  351.5 111  C 351.5 114.08  349.08 116.5  346 116.5  C 342.92 116.5  340.5 114.08  340.5 111  C 340.5 107.92  342.92 105.5  346 105.5  Z " stroke-width="1" stroke="#797979" fill="none" />
  <path d="M 346 114  C 344.32 114  343 112.68  343 111  C 343 109.32  344.32 108  346 108  C 347.68 108  349 109.32  349 111  C 349 112.68  347.68 114  346 114  " fill-rule="nonzero" fill="#797979" stroke="none" />
</svg>