<?xml version="1.0" encoding="utf-8"?>
<svg version="1.1" xmlns:xlink="http://www.w3.org/1999/xlink" width="12px" height="12px" viewBox="358 69  12 12" xmlns="http://www.w3.org/2000/svg">
  <path d="M 364 69  C 367.36 69  370 71.64  370 75  C 370 78.36  367.36 81  364 81  C 360.64 81  358 78.36  358 75  C 358 71.64  360.64 69  364 69  Z " fill-rule="nonzero" fill="#ffffff" stroke="none" />
  <path d="M 364 69.5  C 367.08 69.5  369.5 71.92  369.5 75  C 369.5 78.08  367.08 80.5  364 80.5  C 360.92 80.5  358.5 78.08  358.5 75  C 358.5 71.92  360.92 69.5  364 69.5  Z " stroke-width="1" stroke="#797979" fill="none" />
  <path d="M 364 78  C 362.32 78  361 76.68  361 75  C 361 73.32  362.32 72  364 72  C 365.68 72  367 73.32  367 75  C 367 76.68  365.68 78  364 78  " fill-rule="nonzero" fill="#797979" stroke="none" />
</svg>