<?xml version="1.0" encoding="utf-8"?>
<svg version="1.1" xmlns:xlink="http://www.w3.org/1999/xlink" width="12px" height="12px" viewBox="353 69  12 12" xmlns="http://www.w3.org/2000/svg">
  <path d="M 359 69  C 362.36 69  365 71.64  365 75  C 365 78.36  362.36 81  359 81  C 355.64 81  353 78.36  353 75  C 353 71.64  355.64 69  359 69  Z " fill-rule="nonzero" fill="#ffffff" stroke="none" />
  <path d="M 359 69.5  C 362.08 69.5  364.5 71.92  364.5 75  C 364.5 78.08  362.08 80.5  359 80.5  C 355.92 80.5  353.5 78.08  353.5 75  C 353.5 71.92  355.92 69.5  359 69.5  Z " stroke-width="1" stroke="#797979" fill="none" />
  <path d="M 359 78  C 357.32 78  356 76.68  356 75  C 356 73.32  357.32 72  359 72  C 360.68 72  362 73.32  362 75  C 362 76.68  360.68 78  359 78  " fill-rule="nonzero" fill="#797979" stroke="none" />
</svg>