<?xml version="1.0" encoding="utf-8"?>
<svg version="1.1" xmlns:xlink="http://www.w3.org/1999/xlink" width="12px" height="12px" viewBox="150 461  12 12" xmlns="http://www.w3.org/2000/svg">
  <path d="M 156 461  C 159.36 461  162 463.64  162 467  C 162 470.36  159.36 473  156 473  C 152.64 473  150 470.36  150 467  C 150 463.64  152.64 461  156 461  Z " fill-rule="nonzero" fill="#ffffff" stroke="none" />
  <path d="M 156 461.5  C 159.08 461.5  161.5 463.92  161.5 467  C 161.5 470.08  159.08 472.5  156 472.5  C 152.92 472.5  150.5 470.08  150.5 467  C 150.5 463.92  152.92 461.5  156 461.5  Z " stroke-width="1" stroke="#797979" fill="none" />
  <path d="M 156 470  C 154.32 470  153 468.68  153 467  C 153 465.32  154.32 464  156 464  C 157.68 464  159 465.32  159 467  C 159 468.68  157.68 470  156 470  " fill-rule="nonzero" fill="#797979" stroke="none" />
</svg>