<?xml version="1.0" encoding="utf-8"?>
<svg version="1.1" xmlns:xlink="http://www.w3.org/1999/xlink" width="12px" height="12px" viewBox="78 271  12 12" xmlns="http://www.w3.org/2000/svg">
  <path d="M 84 271  C 87.36 271  90 273.64  90 277  C 90 280.36  87.36 283  84 283  C 80.64 283  78 280.36  78 277  C 78 273.64  80.64 271  84 271  Z " fill-rule="nonzero" fill="#ffffff" stroke="none" />
  <path d="M 84 271.5  C 87.08 271.5  89.5 273.92  89.5 277  C 89.5 280.08  87.08 282.5  84 282.5  C 80.92 282.5  78.5 280.08  78.5 277  C 78.5 273.92  80.92 271.5  84 271.5  Z " stroke-width="1" stroke="#797979" fill="none" />
  <path d="M 84 280  C 82.32 280  81 278.68  81 277  C 81 275.32  82.32 274  84 274  C 85.68 274  87 275.32  87 277  C 87 278.68  85.68 280  84 280  " fill-rule="nonzero" fill="#797979" stroke="none" />
</svg>