<?xml version="1.0" encoding="utf-8"?>
<svg version="1.1" xmlns:xlink="http://www.w3.org/1999/xlink" width="12px" height="12px" viewBox="78 302  12 12" xmlns="http://www.w3.org/2000/svg">
  <path d="M 84 302  C 87.36 302  90 304.64  90 308  C 90 311.36  87.36 314  84 314  C 80.64 314  78 311.36  78 308  C 78 304.64  80.64 302  84 302  Z " fill-rule="nonzero" fill="#ffffff" stroke="none" />
  <path d="M 84 302.5  C 87.08 302.5  89.5 304.92  89.5 308  C 89.5 311.08  87.08 313.5  84 313.5  C 80.92 313.5  78.5 311.08  78.5 308  C 78.5 304.92  80.92 302.5  84 302.5  Z " stroke-width="1" stroke="#797979" fill="none" />
  <path d="M 84 311  C 82.32 311  81 309.68  81 308  C 81 306.32  82.32 305  84 305  C 85.68 305  87 306.32  87 308  C 87 309.68  85.68 311  84 311  " fill-rule="nonzero" fill="#797979" stroke="none" />
</svg>