<?xml version="1.0" encoding="utf-8"?>
<svg version="1.1" xmlns:xlink="http://www.w3.org/1999/xlink" width="12px" height="12px" viewBox="161 118  12 12" xmlns="http://www.w3.org/2000/svg">
  <path d="M 167 118  C 170.36 118  173 120.64  173 124  C 173 127.36  170.36 130  167 130  C 163.64 130  161 127.36  161 124  C 161 120.64  163.64 118  167 118  Z " fill-rule="nonzero" fill="#ffffff" stroke="none" />
  <path d="M 167 118.5  C 170.08 118.5  172.5 120.92  172.5 124  C 172.5 127.08  170.08 129.5  167 129.5  C 163.92 129.5  161.5 127.08  161.5 124  C 161.5 120.92  163.92 118.5  167 118.5  Z " stroke-width="1" stroke="#797979" fill="none" />
  <path d="M 167 127  C 165.32 127  164 125.68  164 124  C 164 122.32  165.32 121  167 121  C 168.68 121  170 122.32  170 124  C 170 125.68  168.68 127  167 127  " fill-rule="nonzero" fill="#797979" stroke="none" />
</svg>