<?xml version="1.0" encoding="utf-8"?>
<svg version="1.1" xmlns:xlink="http://www.w3.org/1999/xlink" width="12px" height="12px" viewBox="437 118  12 12" xmlns="http://www.w3.org/2000/svg">
  <path d="M 443 118  C 446.36 118  449 120.64  449 124  C 449 127.36  446.36 130  443 130  C 439.64 130  437 127.36  437 124  C 437 120.64  439.64 118  443 118  Z " fill-rule="nonzero" fill="#ffffff" stroke="none" />
  <path d="M 443 118.5  C 446.08 118.5  448.5 120.92  448.5 124  C 448.5 127.08  446.08 129.5  443 129.5  C 439.92 129.5  437.5 127.08  437.5 124  C 437.5 120.92  439.92 118.5  443 118.5  Z " stroke-width="1" stroke="#797979" fill="none" />
  <path d="M 443 127  C 441.32 127  440 125.68  440 124  C 440 122.32  441.32 121  443 121  C 444.68 121  446 122.32  446 124  C 446 125.68  444.68 127  443 127  " fill-rule="nonzero" fill="#797979" stroke="none" />
</svg>