<?xml version="1.0" encoding="utf-8"?>
<svg version="1.1" xmlns:xlink="http://www.w3.org/1999/xlink" width="19px" height="17px" xmlns="http://www.w3.org/2000/svg">
  <defs>
    <filter x="84px" y="115px" width="19px" height="17px" filterUnits="userSpaceOnUse" id="filter3">
      <feOffset dx="1" dy="1" in="SourceAlpha" result="shadowOffsetInner" />
      <feGaussianBlur stdDeviation="2.5" in="shadowOffsetInner" result="shadowGaussian" />
      <feComposite in2="shadowGaussian" operator="atop" in="SourceAlpha" result="shadowComposite" />
      <feColorMatrix type="matrix" values="0 0 0 0 0  0 0 0 0 0  0 0 0 0 0  0 0 0 0.698039215686274 0  " in="shadowComposite" />
    </filter>
    <g id="widget4">
      <path d="M 92.5 119  C 95.02 119  97 120.54  97 122.5  C 97 124.46  95.02 126  92.5 126  C 89.98 126  88 124.46  88 122.5  C 88 120.54  89.98 119  92.5 119  Z " fill-rule="nonzero" fill="#ffcc00" stroke="none" />
      <path d="M 92.5 119.5  C 94.74 119.5  96.5 120.82  96.5 122.5  C 96.5 124.18  94.74 125.5  92.5 125.5  C 90.26 125.5  88.5 124.18  88.5 122.5  C 88.5 120.82  90.26 119.5  92.5 119.5  Z " stroke-width="1" stroke="#ffcc00" fill="none" />
    </g>
  </defs>
  <g transform="matrix(1 0 0 1 -84 -115 )">
    <use xlink:href="#widget4" filter="url(#filter3)" />
    <use xlink:href="#widget4" />
  </g>
</svg>