<?xml version="1.0" encoding="utf-8"?>
<svg version="1.1" xmlns:xlink="http://www.w3.org/1999/xlink" width="21px" height="23px" xmlns="http://www.w3.org/2000/svg">
  <defs>
    <filter x="82px" y="67px" width="21px" height="23px" filterUnits="userSpaceOnUse" id="filter1">
      <feOffset dx="1" dy="1" in="SourceAlpha" result="shadowOffsetInner" />
      <feGaussianBlur stdDeviation="2.5" in="shadowOffsetInner" result="shadowGaussian" />
      <feComposite in2="shadowGaussian" operator="atop" in="SourceAlpha" result="shadowComposite" />
      <feColorMatrix type="matrix" values="0 0 0 0 0  0 0 0 0 0  0 0 0 0 0  0 0 0 0.698039215686274 0  " in="shadowComposite" />
    </filter>
    <g id="widget2">
      <path d="M 91.5 71  C 94.58 71  97 73.86  97 77.5  C 97 81.14  94.58 84  91.5 84  C 88.42 84  86 81.14  86 77.5  C 86 73.86  88.42 71  91.5 71  Z " fill-rule="nonzero" fill="#ff0000" stroke="none" />
      <path d="M 91.5 71.5  C 94.3 71.5  96.5 74.14  96.5 77.5  C 96.5 80.86  94.3 83.5  91.5 83.5  C 88.7 83.5  86.5 80.86  86.5 77.5  C 86.5 74.14  88.7 71.5  91.5 71.5  Z " stroke-width="1" stroke="#ff0000" fill="none" />
    </g>
  </defs>
  <g transform="matrix(1 0 0 1 -82 -67 )">
    <use xlink:href="#widget2" filter="url(#filter1)" />
    <use xlink:href="#widget2" />
  </g>
</svg>