<?xml version="1.0" encoding="utf-8"?>
<svg version="1.1" xmlns:xlink="http://www.w3.org/1999/xlink" width="12px" height="12px" viewBox="352 69  12 12" xmlns="http://www.w3.org/2000/svg">
  <path d="M 358 69  C 361.36 69  364 71.64  364 75  C 364 78.36  361.36 81  358 81  C 354.64 81  352 78.36  352 75  C 352 71.64  354.64 69  358 69  Z " fill-rule="nonzero" fill="#ffffff" stroke="none" />
  <path d="M 358 69.5  C 361.08 69.5  363.5 71.92  363.5 75  C 363.5 78.08  361.08 80.5  358 80.5  C 354.92 80.5  352.5 78.08  352.5 75  C 352.5 71.92  354.92 69.5  358 69.5  Z " stroke-width="1" stroke="#797979" fill="none" />
  <path d="M 358 78  C 356.32 78  355 76.68  355 75  C 355 73.32  356.32 72  358 72  C 359.68 72  361 73.32  361 75  C 361 76.68  359.68 78  358 78  " fill-rule="nonzero" fill="#797979" stroke="none" />
</svg>