<?xml version="1.0" encoding="utf-8"?>
<svg version="1.1" xmlns:xlink="http://www.w3.org/1999/xlink" width="12px" height="12px" viewBox="240 69  12 12" xmlns="http://www.w3.org/2000/svg">
  <path d="M 246 69  C 249.36 69  252 71.64  252 75  C 252 78.36  249.36 81  246 81  C 242.64 81  240 78.36  240 75  C 240 71.64  242.64 69  246 69  Z " fill-rule="nonzero" fill="#ffffff" stroke="none" />
  <path d="M 246 69.5  C 249.08 69.5  251.5 71.92  251.5 75  C 251.5 78.08  249.08 80.5  246 80.5  C 242.92 80.5  240.5 78.08  240.5 75  C 240.5 71.92  242.92 69.5  246 69.5  Z " stroke-width="1" stroke="#797979" fill="none" />
  <path d="M 246 78  C 244.32 78  243 76.68  243 75  C 243 73.32  244.32 72  246 72  C 247.68 72  249 73.32  249 75  C 249 76.68  247.68 78  246 78  " fill-rule="nonzero" fill="#797979" stroke="none" />
</svg>