<?xml version="1.0" encoding="utf-8"?>
<svg version="1.1" xmlns:xlink="http://www.w3.org/1999/xlink" width="12px" height="12px" viewBox="73 173  12 12" xmlns="http://www.w3.org/2000/svg">
  <path d="M 79 173  C 82.36 173  85 175.64  85 179  C 85 182.36  82.36 185  79 185  C 75.64 185  73 182.36  73 179  C 73 175.64  75.64 173  79 173  Z " fill-rule="nonzero" fill="#ffffff" stroke="none" />
  <path d="M 79 173.5  C 82.08 173.5  84.5 175.92  84.5 179  C 84.5 182.08  82.08 184.5  79 184.5  C 75.92 184.5  73.5 182.08  73.5 179  C 73.5 175.92  75.92 173.5  79 173.5  Z " stroke-width="1" stroke="#797979" fill="none" />
  <path d="M 79 182  C 77.32 182  76 180.68  76 179  C 76 177.32  77.32 176  79 176  C 80.68 176  82 177.32  82 179  C 82 180.68  80.68 182  79 182  " fill-rule="nonzero" fill="#797979" stroke="none" />
</svg>