<?xml version="1.0" encoding="utf-8"?>
<svg version="1.1" xmlns:xlink="http://www.w3.org/1999/xlink" width="12px" height="12px" viewBox="73 209  12 12" xmlns="http://www.w3.org/2000/svg">
  <path d="M 79 209  C 82.36 209  85 211.64  85 215  C 85 218.36  82.36 221  79 221  C 75.64 221  73 218.36  73 215  C 73 211.64  75.64 209  79 209  Z " fill-rule="nonzero" fill="#ffffff" stroke="none" />
  <path d="M 79 209.5  C 82.08 209.5  84.5 211.92  84.5 215  C 84.5 218.08  82.08 220.5  79 220.5  C 75.92 220.5  73.5 218.08  73.5 215  C 73.5 211.92  75.92 209.5  79 209.5  Z " stroke-width="1" stroke="#797979" fill="none" />
  <path d="M 79 218  C 77.32 218  76 216.68  76 215  C 76 213.32  77.32 212  79 212  C 80.68 212  82 213.32  82 215  C 82 216.68  80.68 218  79 218  " fill-rule="nonzero" fill="#797979" stroke="none" />
</svg>