<?xml version="1.0" encoding="utf-8"?>
<svg version="1.1" xmlns:xlink="http://www.w3.org/1999/xlink" width="12px" height="12px" viewBox="427 209  12 12" xmlns="http://www.w3.org/2000/svg">
  <path d="M 433 209  C 436.36 209  439 211.64  439 215  C 439 218.36  436.36 221  433 221  C 429.64 221  427 218.36  427 215  C 427 211.64  429.64 209  433 209  Z " fill-rule="nonzero" fill="#ffffff" stroke="none" />
  <path d="M 433 209.5  C 436.08 209.5  438.5 211.92  438.5 215  C 438.5 218.08  436.08 220.5  433 220.5  C 429.92 220.5  427.5 218.08  427.5 215  C 427.5 211.92  429.92 209.5  433 209.5  Z " stroke-width="1" stroke="#797979" fill="none" />
  <path d="M 433 218  C 431.32 218  430 216.68  430 215  C 430 213.32  431.32 212  433 212  C 434.68 212  436 213.32  436 215  C 436 216.68  434.68 218  433 218  " fill-rule="nonzero" fill="#797979" stroke="none" />
</svg>