<?xml version="1.0" encoding="utf-8"?>
<svg version="1.1" xmlns:xlink="http://www.w3.org/1999/xlink" width="17px" height="14px" xmlns="http://www.w3.org/2000/svg">
  <g transform="matrix(1 0 0 1 -851 -246 )">
    <path d="M 8.24544270833326 8.24869791666669  C 8.31922743055554 8.30946180555554  8.35611979166674 8.37934027777777  8.35611979166674 8.45833333333331  C 8.35611979166674 8.53732638888891  8.31922743055554 8.60720486111109  8.24544270833326 8.66796875  L 4.57096354166674 11.6940104166667  L 6.16471354166674 13.0065104166667  C 6.30490451388891 13.1219618055555  6.375 13.2586805555555  6.375 13.4166666666667  C 6.375 13.5746527777778  6.30490451388891 13.7113715277778  6.16471354166674 13.8268229166667  C 6.02452256944446 13.9422743055555  5.85850694444446 14  5.66666666666674 14  L 0.708333333333258 14  C 0.516493055555543 14  0.350477430555543 13.9422743055555  0.210286458333258 13.8268229166667  C 0.0700954861110858 13.7113715277778  0 13.5746527777778  0 13.4166666666667  L 0 9.33333333333331  C 0 9.17534722222223  0.0700954861110858 9.03862847222223  0.210286458333258 8.92317708333331  C 0.350477430555543 8.80772569444446  0.516493055555543 8.75  0.708333333333258 8.75  C 0.900173611111086 8.75  1.06618923611109 8.80772569444446  1.20638020833326 8.92317708333331  L 2.80013020833326 10.2356770833333  L 6.474609375 7.20963541666669  C 6.54839409722217 7.14887152777777  6.63324652777783 7.11848958333331  6.72916666666674 7.11848958333331  C 6.82508680555554 7.11848958333331  6.90993923611109 7.14887152777777  6.98372395833326 7.20963541666669  L 8.24544270833326 8.24869791666669  Z M 16.7897135416667 0.173177083333314  C 16.9299045138889 0.288628472222229  17 0.425347222222229  17 0.583333333333314  L 17 4.66666666666669  C 17 4.82465277777777  16.9299045138889 4.96137152777777  16.7897135416667 5.07682291666669  C 16.6495225694445 5.19227430555554  16.4835069444445 5.25  16.2916666666667 5.25  C 16.0998263888889 5.25  15.9338107638889 5.19227430555554  15.7936197916667 5.07682291666669  L 14.1998697916667 3.76432291666669  L 10.525390625 6.79036458333331  C 10.4516059027778 6.85112847222223  10.3667534722222 6.88151041666669  10.2708333333333 6.88151041666669  C 10.1749131944445 6.88151041666669  10.0900607638889 6.85112847222223  10.0162760416667 6.79036458333331  L 8.75455729166674 5.75130208333331  C 8.68077256944446 5.69053819444446  8.64388020833326 5.62065972222223  8.64388020833326 5.54166666666669  C 8.64388020833326 5.46267361111109  8.68077256944446 5.39279513888891  8.75455729166674 5.33203125  L 12.4290364583333 2.30598958333331  L 10.8352864583333 0.993489583333314  C 10.6950954861111 0.878038194444429  10.625 0.741319444444429  10.625 0.583333333333314  C 10.625 0.425347222222229  10.6950954861111 0.288628472222229  10.8352864583333 0.173177083333314  C 10.9754774305555 0.0577256944444287  11.1414930555555 0  11.3333333333333 0  L 16.2916666666667 0  C 16.4835069444445 0  16.6495225694445 0.0577256944444287  16.7897135416667 0.173177083333314  Z " fill-rule="nonzero" fill="#333333" stroke="none" transform="matrix(1 0 0 1 851 246 )" />
  </g>
</svg>