<?xml version="1.0" encoding="utf-8"?>
<svg version="1.1" xmlns:xlink="http://www.w3.org/1999/xlink" width="16px" height="13px" xmlns="http://www.w3.org/2000/svg">
  <g transform="matrix(1 0 0 1 -592 -279 )">
    <path d="M 4.83653846153857 11.7350852272727  C 4.89423076923083 11.6796875  4.92307692307691 11.6089015151515  4.92307692307691 11.5227272727273  L 4.92307692307691 9.75  C 4.92307692307691 9.66382575757575  4.89423076923083 9.59303977272725  4.83653846153857 9.53764204545456  C 4.77884615384619 9.48224431818181  4.70512820512818 9.45454545454544  4.61538461538453 9.45454545454544  L 1.53846153846143 9.45454545454544  C 1.4487179487179 9.45454545454544  1.375 9.48224431818181  1.31730769230762 9.53764204545456  C 1.25961538461547 9.59303977272725  1.23076923076917 9.66382575757575  1.23076923076917 9.75  L 1.23076923076917 11.5227272727273  C 1.23076923076917 11.6089015151515  1.25961538461547 11.6796875  1.31730769230762 11.7350852272727  C 1.375 11.7904829545454  1.4487179487179 11.8181818181818  1.53846153846143 11.8181818181818  L 4.61538461538453 11.8181818181818  C 4.70512820512818 11.8181818181818  4.77884615384619 11.7904829545454  4.83653846153857 11.7350852272727  Z M 4.83653846153857 8.18963068181819  C 4.89423076923083 8.13423295454544  4.92307692307691 8.06344696969694  4.92307692307691 7.97727272727275  L 4.92307692307691 6.20454545454544  C 4.92307692307691 6.11837121212125  4.89423076923083 6.04758522727275  4.83653846153857 5.9921875  C 4.77884615384619 5.93678977272725  4.70512820512818 5.90909090909093  4.61538461538453 5.90909090909093  L 1.53846153846143 5.90909090909093  C 1.4487179487179 5.90909090909093  1.375 5.93678977272725  1.31730769230762 5.9921875  C 1.25961538461547 6.04758522727275  1.23076923076917 6.11837121212125  1.23076923076917 6.20454545454544  L 1.23076923076917 7.97727272727275  C 1.23076923076917 8.06344696969694  1.25961538461547 8.13423295454544  1.31730769230762 8.18963068181819  C 1.375 8.24502840909093  1.4487179487179 8.27272727272725  1.53846153846143 8.27272727272725  L 4.61538461538453 8.27272727272725  C 4.70512820512818 8.27272727272725  4.77884615384619 8.24502840909093  4.83653846153857 8.18963068181819  Z M 9.75961538461547 11.7350852272727  C 9.81730769230762 11.6796875  9.84615384615381 11.6089015151515  9.84615384615381 11.5227272727273  L 9.84615384615381 9.75  C 9.84615384615381 9.66382575757575  9.81730769230762 9.59303977272725  9.75961538461547 9.53764204545456  C 9.70192307692309 9.48224431818181  9.6282051282052 9.45454545454544  9.53846153846143 9.45454545454544  L 6.46153846153857 9.45454545454544  C 6.3717948717948 9.45454545454544  6.29807692307691 9.48224431818181  6.24038461538453 9.53764204545456  C 6.18269230769238 9.59303977272725  6.15384615384619 9.66382575757575  6.15384615384619 9.75  L 6.15384615384619 11.5227272727273  C 6.15384615384619 11.6089015151515  6.18269230769238 11.6796875  6.24038461538453 11.7350852272727  C 6.29807692307691 11.7904829545454  6.3717948717948 11.8181818181818  6.46153846153857 11.8181818181818  L 9.53846153846143 11.8181818181818  C 9.6282051282052 11.8181818181818  9.70192307692309 11.7904829545454  9.75961538461547 11.7350852272727  Z M 4.83653846153857 4.64417613636363  C 4.89423076923083 4.58877840909093  4.92307692307691 4.51799242424244  4.92307692307691 4.43181818181819  L 4.92307692307691 2.65909090909093  C 4.92307692307691 2.57291666666669  4.89423076923083 2.50213068181819  4.83653846153857 2.44673295454544  C 4.77884615384619 2.39133522727275  4.70512820512818 2.36363636363637  4.61538461538453 2.36363636363637  L 1.53846153846143 2.36363636363637  C 1.4487179487179 2.36363636363637  1.375 2.39133522727275  1.31730769230762 2.44673295454544  C 1.25961538461547 2.50213068181819  1.23076923076917 2.57291666666669  1.23076923076917 2.65909090909093  L 1.23076923076917 4.43181818181819  C 1.23076923076917 4.51799242424244  1.25961538461547 4.58877840909093  1.31730769230762 4.64417613636363  C 1.375 4.69957386363637  1.4487179487179 4.72727272727275  1.53846153846143 4.72727272727275  L 4.61538461538453 4.72727272727275  C 4.70512820512818 4.72727272727275  4.77884615384619 4.69957386363637  4.83653846153857 4.64417613636363  Z M 9.75961538461547 8.18963068181819  C 9.81730769230762 8.13423295454544  9.84615384615381 8.06344696969694  9.84615384615381 7.97727272727275  L 9.84615384615381 6.20454545454544  C 9.84615384615381 6.11837121212125  9.81730769230762 6.04758522727275  9.75961538461547 5.9921875  C 9.70192307692309 5.93678977272725  9.6282051282052 5.90909090909093  9.53846153846143 5.90909090909093  L 6.46153846153857 5.90909090909093  C 6.3717948717948 5.90909090909093  6.29807692307691 5.93678977272725  6.24038461538453 5.9921875  C 6.18269230769238 6.04758522727275  6.15384615384619 6.11837121212125  6.15384615384619 6.20454545454544  L 6.15384615384619 7.97727272727275  C 6.15384615384619 8.06344696969694  6.18269230769238 8.13423295454544  6.24038461538453 8.18963068181819  C 6.29807692307691 8.24502840909093  6.3717948717948 8.27272727272725  6.46153846153857 8.27272727272725  L 9.53846153846143 8.27272727272725  C 9.6282051282052 8.27272727272725  9.70192307692309 8.24502840909093  9.75961538461547 8.18963068181819  Z M 14.6826923076924 11.7350852272727  C 14.7403846153845 11.6796875  14.7692307692308 11.6089015151515  14.7692307692308 11.5227272727273  L 14.7692307692308 9.75  C 14.7692307692308 9.66382575757575  14.7403846153845 9.59303977272725  14.6826923076924 9.53764204545456  C 14.625 9.48224431818181  14.5512820512821 9.45454545454544  14.4615384615386 9.45454545454544  L 11.3846153846155 9.45454545454544  C 11.2948717948718 9.45454545454544  11.2211538461538 9.48224431818181  11.1634615384614 9.53764204545456  C 11.1057692307692 9.59303977272725  11.0769230769231 9.66382575757575  11.0769230769231 9.75  L 11.0769230769231 11.5227272727273  C 11.0769230769231 11.6089015151515  11.1057692307692 11.6796875  11.1634615384614 11.7350852272727  C 11.2211538461538 11.7904829545454  11.2948717948718 11.8181818181818  11.3846153846155 11.8181818181818  L 14.4615384615386 11.8181818181818  C 14.5512820512821 11.8181818181818  14.625 11.7904829545454  14.6826923076924 11.7350852272727  Z M 9.75961538461547 4.64417613636363  C 9.81730769230762 4.58877840909093  9.84615384615381 4.51799242424244  9.84615384615381 4.43181818181819  L 9.84615384615381 2.65909090909093  C 9.84615384615381 2.57291666666669  9.81730769230762 2.50213068181819  9.75961538461547 2.44673295454544  C 9.70192307692309 2.39133522727275  9.6282051282052 2.36363636363637  9.53846153846143 2.36363636363637  L 6.46153846153857 2.36363636363637  C 6.3717948717948 2.36363636363637  6.29807692307691 2.39133522727275  6.24038461538453 2.44673295454544  C 6.18269230769238 2.50213068181819  6.15384615384619 2.57291666666669  6.15384615384619 2.65909090909093  L 6.15384615384619 4.43181818181819  C 6.15384615384619 4.51799242424244  6.18269230769238 4.58877840909093  6.24038461538453 4.64417613636363  C 6.29807692307691 4.69957386363637  6.3717948717948 4.72727272727275  6.46153846153857 4.72727272727275  L 9.53846153846143 4.72727272727275  C 9.6282051282052 4.72727272727275  9.70192307692309 4.69957386363637  9.75961538461547 4.64417613636363  Z M 14.6826923076924 8.18963068181819  C 14.7403846153845 8.13423295454544  14.7692307692308 8.06344696969694  14.7692307692308 7.97727272727275  L 14.7692307692308 6.20454545454544  C 14.7692307692308 6.11837121212125  14.7403846153845 6.04758522727275  14.6826923076924 5.9921875  C 14.625 5.93678977272725  14.5512820512821 5.90909090909093  14.4615384615386 5.90909090909093  L 11.3846153846155 5.90909090909093  C 11.2948717948718 5.90909090909093  11.2211538461538 5.93678977272725  11.1634615384614 5.9921875  C 11.1057692307692 6.04758522727275  11.0769230769231 6.11837121212125  11.0769230769231 6.20454545454544  L 11.0769230769231 7.97727272727275  C 11.0769230769231 8.06344696969694  11.1057692307692 8.13423295454544  11.1634615384614 8.18963068181819  C 11.2211538461538 8.24502840909093  11.2948717948718 8.27272727272725  11.3846153846155 8.27272727272725  L 14.4615384615386 8.27272727272725  C 14.5512820512821 8.27272727272725  14.625 8.24502840909093  14.6826923076924 8.18963068181819  Z M 14.6826923076924 4.64417613636363  C 14.7403846153845 4.58877840909093  14.7692307692308 4.51799242424244  14.7692307692308 4.43181818181819  L 14.7692307692308 2.65909090909093  C 14.7692307692308 2.57291666666669  14.7403846153845 2.50213068181819  14.6826923076924 2.44673295454544  C 14.625 2.39133522727275  14.5512820512821 2.36363636363637  14.4615384615386 2.36363636363637  L 11.3846153846155 2.36363636363637  C 11.2948717948718 2.36363636363637  11.2211538461538 2.39133522727275  11.1634615384614 2.44673295454544  C 11.1057692307692 2.50213068181819  11.0769230769231 2.57291666666669  11.0769230769231 2.65909090909093  L 11.0769230769231 4.43181818181819  C 11.0769230769231 4.51799242424244  11.1057692307692 4.58877840909093  11.1634615384614 4.64417613636363  C 11.2211538461538 4.69957386363637  11.2948717948718 4.72727272727275  11.3846153846155 4.72727272727275  L 14.4615384615386 4.72727272727275  C 14.5512820512821 4.72727272727275  14.625 4.69957386363637  14.6826923076924 4.64417613636363  Z M 15.5480769230769 0.433948863636374  C 15.849358974359 0.723248106060623  16 1.07102272727275  16 1.47727272727275  L 16 11.5227272727273  C 16 11.9289772727273  15.849358974359 12.2767518939394  15.5480769230769 12.5660511363636  C 15.2467948717948 12.8553503787879  14.8846153846155 13  14.4615384615386 13  L 1.53846153846143 13  C 1.11538461538453 13  0.753205128205195 12.8553503787879  0.451923076923094 12.5660511363636  C 0.150641025640994 12.2767518939394  0 11.9289772727273  0 11.5227272727273  L 0 1.47727272727275  C 0 1.07102272727275  0.150641025640994 0.723248106060623  0.451923076923094 0.433948863636374  C 0.753205128205195 0.144649621212125  1.11538461538453 0  1.53846153846143 0  L 14.4615384615386 0  C 14.8846153846155 0  15.2467948717948 0.144649621212125  15.5480769230769 0.433948863636374  Z " fill-rule="nonzero" fill="#333333" stroke="none" transform="matrix(1 0 0 1 592 279 )" />
  </g>
</svg>