<?xml version="1.0" encoding="utf-8"?>
<svg version="1.1" xmlns:xlink="http://www.w3.org/1999/xlink" width="21px" height="13px" xmlns="http://www.w3.org/2000/svg">
  <g transform="matrix(1 0 0 1 -828 -246 )">
    <path d="M 20.0316332259684 0  C 20.4486421796046 0  20.7415413256109 0.120028409090907  20.9103306639875 0.360085227272748  C 21.079120002364 0.612452651515156  21.0096185100913 0.827888257575751  20.7018261871694 1.00639204545456  L 13.3594899677905 5.55823863636363  L 13.3594899677905 12.4090909090909  C 13.3594899677905 12.6676136363636  13.165878667888 12.8491950757576  12.7786560680831 12.9538352272727  C 12.6495818681482 12.9846117424242  12.5254720605183 13  12.4063266451938 13  C 12.1382494607134 13  11.9148518069796 12.9415246212121  11.7361336839929 12.8245738636364  L 7.92348039360536 10.4609375  C 7.73483348600803 10.3439867424242  7.64051003220948 10.2054924242424  7.64051003220948 10.0454545454546  L 7.64051003220948 5.55823863636363  L 0.298173812830555 1.00639204545456  C -0.00961851009128623 0.827888257575751  -0.0791200023639931 0.612452651515156  0.0896693360125482 0.360085227272748  C 0.25845867438909 0.120028409090907  0.55135782039531 0  0.968366774031551 0  L 20.0316332259684 0  Z " fill-rule="nonzero" fill="#333333" stroke="none" transform="matrix(1 0 0 1 828 246 )" />
  </g>
</svg>