<?xml version="1.0" encoding="utf-8"?>
<svg version="1.1" xmlns:xlink="http://www.w3.org/1999/xlink" width="24px" height="21px" xmlns="http://www.w3.org/2000/svg">
  <g transform="matrix(1 0 0 1 -783 -461 )">
    <path d="M 795 461  C 801.72 461  807 465.62  807 471.5  C 807 477.38  801.72 482  795 482  C 788.28 482  783 477.38  783 471.5  C 783 465.62  788.28 461  795 461  Z " fill-rule="nonzero" fill="#ff0000" stroke="none" />
    <path d="M 795 461.5  C 801.44 461.5  806.5 465.9  806.5 471.5  C 806.5 477.1  801.44 481.5  795 481.5  C 788.56 481.5  783.5 477.1  783.5 471.5  C 783.5 465.9  788.56 461.5  795 461.5  Z " stroke-width="1" stroke="#797979" fill="none" />
  </g>
</svg>